<?xml version="1.0" encoding="UTF-8" standalone="no"?>
<!DOCTYPE svg PUBLIC "-//W3C//DTD SVG 1.1//EN" "http://www.w3.org/Graphics/SVG/1.1/DTD/svg11.dtd">
<svg width="100%" height="100%" viewBox="0 0 928 345" version="1.1" xmlns="http://www.w3.org/2000/svg" xmlns:xlink="http://www.w3.org/1999/xlink" xml:space="preserve" xmlns:serif="http://www.serif.com/" style="fill-rule:evenodd;clip-rule:evenodd;stroke-linejoin:round;stroke-miterlimit:2;">
    <g transform="matrix(0.666667,0,0,0.666667,0,0)">
        <g id="Artboard1" transform="matrix(1,0,0,1,-112.405,-198.471)">
            <rect x="112.405" y="198.471" width="1391.29" height="516.717" style="fill:none;"/>
            <g transform="matrix(1,0,0,1,0.404812,0.471161)">
                <g transform="matrix(1,0,0,1,-263.308,-129.477)">
                    <path d="M449.298,709.366L419.886,679.954L428.969,679.954L458.381,709.366L449.298,709.366ZM440.431,709.366L431.564,709.366L401.936,679.954L411.019,679.954L440.431,709.366ZM455.785,679.954L464.652,679.954L494.28,709.366L485.197,709.366L455.785,679.954ZM446.919,679.954L476.33,709.366L467.247,709.366L437.836,679.954L446.919,679.954ZM502.282,708.501L472.654,678.873C475.249,678.296 477.556,677.575 479.574,676.71L509.202,706.338C507.04,707.059 504.733,707.78 502.282,708.501ZM485.413,673.682C487.144,672.529 488.874,671.231 490.604,669.79L520.016,699.418C518.43,700.86 516.772,702.157 515.042,703.31L485.413,673.682ZM451.676,639.945L441.728,629.997L441.728,621.13L458.813,637.999C456.939,638.864 454.56,639.513 451.676,639.945ZM442.81,639.945L441.728,639.945L441.728,638.864L442.81,639.945ZM524.341,694.66L494.713,665.248C496.01,663.662 497.308,661.86 498.606,659.842L528.017,689.47C526.864,691.488 525.638,693.218 524.341,694.66ZM441.728,612.264L441.728,602.964L463.571,624.807C463.427,628.555 463.138,631.295 462.706,633.025L441.728,612.264ZM533.424,676.926C532.847,678.945 532.054,681.107 531.045,683.414L501.417,654.002C502.426,651.696 503.291,649.461 504.012,647.298L533.424,676.926ZM535.154,669.79L505.742,640.162C506.175,637.134 506.535,634.539 506.824,632.376L536.452,661.788C536.163,664.095 535.731,666.762 535.154,669.79ZM441.728,585.231L463.571,606.857L463.571,615.94L441.728,594.314L441.728,585.231ZM441.728,576.364L441.728,567.281L463.571,588.907L463.571,597.99L441.728,576.364ZM536.884,653.354L507.256,623.942L507.256,614.859L536.884,644.271L536.884,653.354ZM441.728,558.414L441.728,549.331L463.571,570.957L463.571,580.04L441.728,558.414ZM507.256,605.992L507.256,596.909L536.884,626.321L536.884,635.404L507.256,605.992ZM463.571,562.091L441.728,540.464L441.728,531.381L463.571,553.008L463.571,562.091ZM536.884,617.454L507.256,588.042L507.256,578.959L536.884,608.371L536.884,617.454ZM441.728,522.514L441.728,513.431L463.571,535.058L463.571,544.141L441.728,522.514ZM507.256,570.092L507.256,561.009L536.884,590.637L536.884,599.504L507.256,570.092ZM463.571,526.191L441.728,504.565L441.728,495.481L463.571,517.108L463.571,526.191ZM536.884,581.771L507.256,552.142L507.256,543.059L536.884,572.687L536.884,581.771ZM441.728,486.615L441.728,477.532L463.571,499.158L463.571,508.241L441.728,486.615ZM507.256,534.193L507.256,525.11L536.884,554.738L536.884,563.821L507.256,534.193ZM463.571,490.291L441.728,468.665L441.728,459.582L463.571,481.208L463.571,490.291ZM536.884,545.871L507.256,516.243L507.256,507.16L536.884,536.788L536.884,545.871ZM441.728,450.715L441.728,441.632L463.571,463.474L463.571,472.341L441.728,450.715ZM507.256,498.293L507.256,489.21L536.884,518.838L536.884,527.921L507.256,498.293ZM463.571,454.608L441.728,432.765L441.728,423.682L463.571,445.308L463.571,454.608ZM536.884,509.971L507.256,480.343L507.256,471.26L536.884,500.888L536.884,509.971ZM441.728,414.815L441.728,405.732L463.571,427.359L463.571,436.442L441.728,414.815ZM507.256,462.393L507.256,453.31L536.884,482.938L536.884,492.021L507.256,462.393ZM463.571,418.708L441.728,396.865L441.728,387.782L463.571,409.625L463.571,418.708ZM536.884,474.071L507.256,444.443L507.256,435.36L536.884,464.988L536.884,474.071ZM443.675,380.862L451.028,380.862L453.19,381.294L462.922,391.026C463.21,393.333 463.427,395.568 463.571,397.73L463.571,400.758L443.675,380.862ZM507.256,426.493L507.256,417.41L536.884,447.038L536.884,456.122L507.256,426.493ZM536.884,438.172L507.256,408.544L507.256,399.461L536.884,429.089L536.884,438.172ZM507.256,390.594C506.968,387.278 506.463,383.745 505.742,379.997L535.37,409.625C536.091,413.229 536.524,416.69 536.668,420.006L507.256,390.594ZM530.829,396.217L501.417,366.805C497.38,359.019 491.685,352.964 484.332,348.639C487.36,350.369 490.243,352.531 492.983,355.127L522.395,384.755C525.711,388.071 528.522,391.891 530.829,396.217ZM408.207,673.25L408.207,347.774L451.676,347.774C484.404,347.918 500.768,363.849 500.768,395.568L500.768,622.861C500.768,636.269 498.245,647.37 493.199,656.165C486.567,667.555 476.547,673.25 463.138,673.25L408.207,673.25ZM435.24,646.65L448,646.65C459.39,646.361 466.31,642.901 468.761,636.269C469.77,633.674 470.275,629.637 470.275,624.158L470.275,397.947C470.275,383.385 464.076,375.527 451.676,374.374L435.24,374.374L435.24,646.65Z" style="fill:rgb(35,31,32);"/>
                    <path d="M621.011,624.158L621.011,614.859L646.097,639.945L637.014,639.945L621.011,624.158ZM621.011,632.809L628.147,639.945L621.011,639.945L621.011,632.809ZM621.011,597.125L650.639,626.537L650.639,635.62L621.011,605.992L621.011,597.125ZM621.011,588.258L621.011,579.175L650.639,608.587L650.639,617.67L621.011,588.258ZM621.011,570.309L621.011,561.226L650.639,590.637L650.639,599.72L621.011,570.309ZM650.639,581.771L621.011,552.142L621.011,543.276L650.639,572.687L650.639,581.771ZM621.011,534.409L621.011,529.219L625.12,529.219L654.531,558.847L650.639,558.847L650.639,563.821L621.011,534.409ZM663.398,558.847L633.986,529.219L643.069,529.219L672.481,558.847L663.398,558.847ZM651.936,529.219L659.073,529.219L659.073,527.488L688.701,556.9L688.701,558.847L681.348,558.847L651.936,529.219ZM688.701,548.25L659.073,518.622L659.073,509.539L688.701,538.95L688.701,548.25ZM659.073,500.672L659.073,491.589L688.701,521.217L688.701,530.084L659.073,500.672ZM584.462,679.954L593.545,679.954L623.173,709.366L614.09,709.366L584.462,679.954ZM649.99,709.366L620.362,679.954L629.445,679.954L658.857,709.366L649.99,709.366ZM641.123,709.366L632.04,709.366L602.412,679.954L611.495,679.954L641.123,709.366ZM638.312,679.954L647.395,679.954L676.807,709.366L667.723,709.366L638.312,679.954ZM685.673,709.366L656.262,679.954L659.073,679.954L659.073,673.682L688.701,703.31L688.701,709.366L685.673,709.366ZM659.073,664.816L659.073,655.733L688.701,685.361L688.701,694.444L659.073,664.816ZM688.701,676.494L659.073,646.866L659.073,639.945L688.701,669.573L688.701,676.494ZM627.282,489.426L621.011,483.371L621.011,474.071L636.365,489.426L627.282,489.426ZM621.011,465.205L621.011,456.338L650.639,485.75L650.639,489.426L645.232,489.426L621.011,465.205ZM650.639,476.883L621.011,447.471L621.011,438.388L650.639,467.8L650.639,476.883ZM621.011,429.521L621.011,420.438L650.639,449.85L650.639,458.933L621.011,429.521ZM650.639,440.983L621.011,411.571L621.011,402.488L650.639,431.9L650.639,440.983ZM621.011,393.621L621.011,384.538L650.639,413.95L650.639,423.033L621.011,393.621ZM655.829,410.49L626.417,380.862L635.5,380.862L664.912,410.49L655.829,410.49ZM644.151,380.862L653.234,380.862L682.862,410.49L673.779,410.49L644.151,380.862ZM688.701,407.462L659.073,377.834L659.073,368.751L688.701,398.163L688.701,407.462ZM659.073,359.884L659.073,350.801L688.701,380.429L688.701,389.512L659.073,359.884ZM688.701,371.563L659.073,341.935L659.073,341.069L688.701,370.698L688.701,371.563ZM585.543,347.774L652.369,347.774L652.369,374.374L614.306,374.374L614.306,496.13L652.369,496.13L652.369,522.731L614.306,522.731L614.306,646.65L652.369,646.65L652.369,673.25L585.543,673.25L585.543,347.774Z" style="fill:rgb(35,31,32);"/>
                    <path d="M772.827,624.158L772.827,614.859L797.914,639.945L788.831,639.945L772.827,624.158ZM772.827,632.809L779.964,639.945L772.827,639.945L772.827,632.809ZM772.827,597.125L802.455,626.537L802.455,635.62L772.827,605.992L772.827,597.125ZM772.827,588.258L772.827,579.175L802.455,608.587L802.455,617.67L772.827,588.258ZM772.827,570.309L772.827,561.226L802.455,590.637L802.455,599.72L772.827,570.309ZM802.455,581.771L772.827,552.142L772.827,543.276L802.455,572.687L802.455,581.771ZM772.827,534.409L772.827,529.219L776.936,529.219L806.348,558.847L802.455,558.847L802.455,563.821L772.827,534.409ZM815.215,558.847L785.803,529.219L794.886,529.219L824.298,558.847L815.215,558.847ZM803.753,529.219L810.89,529.219L810.89,527.488L840.518,556.9L840.518,558.847L833.165,558.847L803.753,529.219ZM840.518,548.25L810.89,518.622L810.89,509.539L840.518,538.95L840.518,548.25ZM810.89,500.672L810.89,491.589L840.518,521.217L840.518,530.084L810.89,500.672ZM736.279,679.954L745.362,679.954L774.99,709.366L765.907,709.366L736.279,679.954ZM801.807,709.366L772.179,679.954L781.262,679.954L810.674,709.366L801.807,709.366ZM792.94,709.366L783.857,709.366L754.229,679.954L763.312,679.954L792.94,709.366ZM790.128,679.954L799.212,679.954L828.623,709.366L819.54,709.366L790.128,679.954ZM837.49,709.366L808.078,679.954L810.89,679.954L810.89,673.682L840.518,703.31L840.518,709.366L837.49,709.366ZM810.89,664.816L810.89,655.733L840.518,685.361L840.518,694.444L810.89,664.816ZM840.518,676.494L810.89,646.866L810.89,639.945L840.518,669.573L840.518,676.494ZM779.099,489.426L772.827,483.371L772.827,474.071L788.182,489.426L779.099,489.426ZM772.827,465.205L772.827,456.338L802.455,485.75L802.455,489.426L797.049,489.426L772.827,465.205ZM802.455,476.883L772.827,447.471L772.827,438.388L802.455,467.8L802.455,476.883ZM772.827,429.521L772.827,420.438L802.455,449.85L802.455,458.933L772.827,429.521ZM802.455,440.983L772.827,411.571L772.827,402.488L802.455,431.9L802.455,440.983ZM772.827,393.621L772.827,384.538L802.455,413.95L802.455,423.033L772.827,393.621ZM807.646,410.49L778.234,380.862L787.317,380.862L816.729,410.49L807.646,410.49ZM795.968,380.862L805.051,380.862L834.679,410.49L825.596,410.49L795.968,380.862ZM840.518,407.462L810.89,377.834L810.89,368.751L840.518,398.163L840.518,407.462ZM810.89,359.884L810.89,350.801L840.518,380.429L840.518,389.512L810.89,359.884ZM840.518,371.563L810.89,341.935L810.89,341.069L840.518,370.698L840.518,371.563ZM737.36,347.774L804.186,347.774L804.186,374.374L766.123,374.374L766.123,496.13L804.186,496.13L804.186,522.731L766.123,522.731L766.123,646.65L804.186,646.65L804.186,673.25L737.36,673.25L737.36,347.774Z" style="fill:rgb(35,31,32);"/>
                    <path d="M928.753,709.366L899.341,679.954L908.425,679.954L937.836,709.366L928.753,709.366ZM919.886,709.366L912.101,709.366L882.473,679.954L890.475,679.954L919.886,709.366ZM924.644,669.141L924.644,660.274L954.056,689.686L954.056,698.769L924.644,669.141ZM924.644,678.008L954.056,707.636L954.056,709.366L946.703,709.366L917.291,679.954L924.644,679.954L924.644,678.008ZM954.056,680.819L924.644,651.407L924.644,642.324L954.056,671.736L954.056,680.819ZM924.644,633.457L924.644,624.374L954.056,653.786L954.056,662.869L924.644,633.457ZM954.056,644.919L924.644,615.508L924.644,606.425L954.056,635.836L954.056,644.919ZM954.056,618.103L954.056,626.97L924.644,597.558L924.644,588.475L954.056,618.103ZM954.056,609.236L924.644,579.608L924.644,570.525L954.056,600.153L954.056,609.236ZM954.056,591.286L924.644,561.658L924.644,552.575L954.056,582.203L954.056,591.286ZM924.644,543.708L924.644,534.625L954.056,564.253L954.056,573.12L924.644,543.708ZM957.084,558.414L927.672,528.786L936.755,528.786L966.167,558.414L957.084,558.414ZM944.54,527.921C946.847,527.488 949.226,526.84 951.677,525.975L981.305,555.603C978.854,556.324 976.475,556.972 974.169,557.549L944.54,527.921ZM987.361,552.791L957.949,523.379C960.111,522.082 961.914,520.856 963.355,519.703L992.983,549.331C991.398,550.484 989.523,551.638 987.361,552.791ZM968.113,515.594C969.843,513.864 971.285,512.278 972.438,510.836L1002.07,540.248C1000.77,541.834 999.327,543.492 997.741,545.222L968.113,515.594ZM937.62,485.101L924.644,471.909L924.644,462.826L941.513,479.694C940.504,482.001 939.206,483.803 937.62,485.101ZM931.565,487.696C929.546,488.129 927.239,488.489 924.644,488.777L924.644,480.776L931.565,487.696ZM1005.53,534.841L975.899,505.43C977.052,503.555 978.061,501.537 978.926,499.374L1008.55,529.002C1007.55,531.021 1006.54,532.967 1005.53,534.841ZM924.644,453.959L924.644,444.876L943.243,463.474L943.243,469.097C943.243,469.818 943.171,470.972 943.027,472.558L924.644,453.959ZM981.305,492.886C982.314,490.147 982.963,487.768 983.252,485.75L1012.88,515.378C1012.45,517.252 1011.8,519.631 1010.93,522.514L981.305,492.886ZM943.243,454.824L924.644,436.225L924.644,426.926L943.243,445.525L943.243,454.824ZM1014.18,507.592L984.549,478.18C984.838,474.864 985.054,472.053 985.198,469.746L1014.61,499.158C1014.61,501.609 1014.47,504.42 1014.18,507.592ZM924.644,418.059L924.644,408.976L943.243,427.575L943.243,436.874L924.644,418.059ZM985.198,460.879L985.198,451.796L1014.83,481.424L1014.83,490.507L985.198,460.879ZM943.243,418.708L924.644,400.109L924.644,391.243L943.243,409.841L943.243,418.708ZM1014.83,472.558L985.198,442.929L985.198,433.846L1014.83,463.474L1014.83,472.558ZM924.644,382.376L924.644,381.078C927.96,381.222 931.06,381.727 933.944,382.592L941.945,390.594C942.666,393.766 943.027,397.226 943.027,400.974L924.644,382.376ZM985.198,424.98L985.198,415.897L1014.83,445.525L1014.83,454.608L985.198,424.98ZM1014.83,436.658L985.198,407.03L985.198,397.947L1014.83,427.575L1014.83,436.658ZM984.765,388.864C984.477,385.548 983.828,381.799 982.819,377.618L1012.45,407.246C1013.31,410.85 1013.96,414.527 1014.39,418.275L984.765,388.864ZM1005.31,391.243L975.682,361.831C974.241,359.524 972.438,357.217 970.276,354.91L999.471,384.106C1001.63,386.413 1003.58,388.792 1005.31,391.243ZM917.94,495.698C926.591,495.554 933.151,494.544 937.62,492.67C945.406,489.21 949.442,481.352 949.731,469.097L949.731,402.705C949.587,390.017 946.415,381.799 940.215,378.05C935.89,375.6 928.465,374.374 917.94,374.374L917.94,495.698ZM889.177,673.25L889.177,347.774L935.241,347.774C948.505,347.774 959.102,352.243 967.032,361.182C974.817,369.832 978.71,381.439 978.71,396L978.71,466.502C978.71,480.776 975.971,492.598 970.492,501.969C962.707,515.522 950.812,522.298 934.809,522.298L917.94,522.298L917.94,673.25L889.177,673.25Z" style="fill:rgb(35,31,32);"/>
                    <path d="M1204.7,709.366L1175.29,679.954L1184.38,679.954L1213.79,709.366L1204.7,709.366ZM1195.84,709.366L1186.97,709.366L1157.34,679.954L1166.43,679.954L1195.84,709.366ZM1211.19,679.954L1220.06,679.954L1249.69,709.366L1240.61,709.366L1211.19,679.954ZM1202.33,679.954L1231.74,709.366L1222.65,709.366L1193.24,679.954L1202.33,679.954ZM1257.69,708.501L1228.06,678.873C1230.66,678.296 1232.96,677.575 1234.98,676.71L1264.61,706.338C1262.45,707.059 1260.14,707.78 1257.69,708.501ZM1240.82,673.682C1242.55,672.529 1244.28,671.231 1246.01,669.79L1275.42,699.418C1273.84,700.86 1272.18,702.157 1270.45,703.31L1240.82,673.682ZM1207.08,639.945L1197.14,629.997L1197.14,621.13L1214.22,637.999C1212.35,638.864 1209.97,639.513 1207.08,639.945ZM1198.22,639.945L1197.14,639.945L1197.14,638.864L1198.22,639.945ZM1279.75,694.66L1250.12,665.248C1251.42,663.662 1252.72,661.86 1254.01,659.842L1283.42,689.47C1282.27,691.488 1281.05,693.218 1279.75,694.66ZM1197.14,612.264L1197.14,602.964L1218.98,624.807C1218.83,628.555 1218.55,631.295 1218.11,633.025L1197.14,612.264ZM1288.83,676.926C1288.26,678.945 1287.46,681.107 1286.45,683.414L1256.83,654.002C1257.83,651.696 1258.7,649.461 1259.42,647.298L1288.83,676.926ZM1290.56,669.79L1261.15,640.162C1261.58,637.134 1261.94,634.539 1262.23,632.376L1291.86,661.788C1291.57,664.095 1291.14,666.762 1290.56,669.79ZM1197.14,585.231L1218.98,606.857L1218.98,615.94L1197.14,594.314L1197.14,585.231ZM1197.14,576.364L1197.14,567.281L1218.98,588.907L1218.98,597.99L1197.14,576.364ZM1292.29,653.354L1262.66,623.942L1262.66,614.859L1292.29,644.271L1292.29,653.354ZM1197.14,558.414L1197.14,549.331L1218.98,570.957L1218.98,580.04L1197.14,558.414ZM1262.66,605.992L1262.66,596.909L1292.29,626.321L1292.29,635.404L1262.66,605.992ZM1218.98,562.091L1197.14,540.464L1197.14,531.381L1218.98,553.008L1218.98,562.091ZM1292.29,617.454L1262.66,588.042L1262.66,578.959L1292.29,608.371L1292.29,617.454ZM1197.14,522.514L1197.14,513.431L1218.98,535.058L1218.98,544.141L1197.14,522.514ZM1262.66,570.092L1262.66,561.009L1292.29,590.637L1292.29,599.504L1262.66,570.092ZM1218.98,526.191L1197.14,504.565L1197.14,495.481L1218.98,517.108L1218.98,526.191ZM1292.29,581.771L1262.66,552.142L1262.66,543.059L1292.29,572.687L1292.29,581.771ZM1197.14,486.615L1197.14,477.532L1218.98,499.158L1218.98,508.241L1197.14,486.615ZM1262.66,534.193L1262.66,525.11L1292.29,554.738L1292.29,563.821L1262.66,534.193ZM1218.98,490.291L1197.14,468.665L1197.14,459.582L1218.98,481.208L1218.98,490.291ZM1292.29,545.871L1262.66,516.243L1262.66,507.16L1292.29,536.788L1292.29,545.871ZM1197.14,450.715L1197.14,441.632L1218.98,463.474L1218.98,472.341L1197.14,450.715ZM1262.66,498.293L1262.66,489.21L1292.29,518.838L1292.29,527.921L1262.66,498.293ZM1218.98,454.608L1197.14,432.765L1197.14,423.682L1218.98,445.308L1218.98,454.608ZM1292.29,509.971L1262.66,480.343L1262.66,471.26L1292.29,500.888L1292.29,509.971ZM1197.14,414.815L1197.14,405.732L1218.98,427.359L1218.98,436.442L1197.14,414.815ZM1262.66,462.393L1262.66,453.31L1292.29,482.938L1292.29,492.021L1262.66,462.393ZM1218.98,418.708L1197.14,396.865L1197.14,387.782L1218.98,409.625L1218.98,418.708ZM1292.29,474.071L1262.66,444.443L1262.66,435.36L1292.29,464.988L1292.29,474.071ZM1199.08,380.862L1206.43,380.862L1208.6,381.294L1218.33,391.026C1218.62,393.333 1218.83,395.568 1218.98,397.73L1218.98,400.758L1199.08,380.862ZM1262.66,426.493L1262.66,417.41L1292.29,447.038L1292.29,456.122L1262.66,426.493ZM1292.29,438.172L1262.66,408.544L1262.66,399.461L1292.29,429.089L1292.29,438.172ZM1262.66,390.594C1262.38,387.278 1261.87,383.745 1261.15,379.997L1290.78,409.625C1291.5,413.229 1291.93,416.69 1292.08,420.006L1262.66,390.594ZM1286.24,396.217L1256.83,366.805C1252.79,359.019 1247.09,352.964 1239.74,348.639C1242.77,350.369 1245.65,352.531 1248.39,355.127L1277.8,384.755C1281.12,388.071 1283.93,391.891 1286.24,396.217ZM1163.62,673.25L1163.62,347.774L1207.08,347.774C1239.81,347.918 1256.18,363.849 1256.18,395.568L1256.18,622.861C1256.18,636.269 1253.65,647.37 1248.61,656.165C1241.98,667.555 1231.95,673.25 1218.55,673.25L1163.62,673.25ZM1190.65,646.65L1203.41,646.65C1214.8,646.361 1221.72,642.901 1224.17,636.269C1225.18,633.674 1225.68,629.637 1225.68,624.158L1225.68,397.947C1225.68,383.385 1219.48,375.527 1207.08,374.374L1190.65,374.374L1190.65,646.65Z" style="fill:rgb(35,31,32);"/>
                    <path d="M1356.74,679.954L1365.82,679.954L1395.23,709.366L1386.37,709.366L1356.74,679.954ZM1347.87,679.954L1377.5,709.366L1368.42,709.366L1338.79,679.954L1347.87,679.954ZM1404.1,709.366L1374.69,679.954L1376.42,679.954L1376.42,672.601L1406.05,702.013L1406.05,709.366L1404.1,709.366ZM1376.42,663.734L1376.42,654.651C1376.42,654.651 1401.11,677.864 1406.05,684.279C1407.85,686.622 1406.05,693.146 1406.05,693.146L1376.42,663.734ZM1406.05,675.413L1376.42,645.784L1376.42,636.701L1406.05,666.329L1406.05,675.413ZM1406.05,648.38L1406.05,657.463L1376.42,627.835L1376.42,618.752L1406.05,648.38ZM1406.05,639.513L1376.42,609.885L1376.42,600.802L1406.05,630.43L1406.05,639.513ZM1406.05,621.563L1376.42,591.935L1376.42,582.852L1406.05,612.48L1406.05,621.563ZM1376.42,573.985L1376.42,564.902L1406.05,594.53L1406.05,603.613L1376.42,573.985ZM1406.05,585.663L1376.42,556.251L1376.42,546.952L1406.05,576.58L1406.05,585.663ZM1376.42,538.085L1376.42,529.219L1406.05,558.63L1406.05,567.713L1376.42,538.085ZM1406.05,549.764L1376.42,520.135L1376.42,511.269L1406.05,540.68L1406.05,549.764ZM1376.42,502.402L1376.42,493.103L1406.05,522.731L1406.05,531.814L1376.42,502.402ZM1406.05,513.864L1376.42,484.236L1376.42,475.369L1406.05,504.781L1406.05,513.864ZM1376.42,466.502L1376.42,457.419L1406.05,486.831L1406.05,495.914L1376.42,466.502ZM1406.05,477.964L1376.42,448.552L1376.42,439.469L1406.05,468.881L1406.05,477.964ZM1376.42,430.602L1376.42,421.519L1406.05,450.931L1406.05,460.014L1376.42,430.602ZM1406.05,442.064L1376.42,412.653L1376.42,403.57L1406.05,432.981L1406.05,442.064ZM1376.42,394.703L1376.42,385.62L1406.05,415.032L1406.05,424.115L1376.42,394.703ZM1406.05,406.165L1376.42,376.753L1376.42,367.67L1406.05,397.298L1406.05,406.165ZM1376.42,358.803L1376.42,349.72L1406.05,379.132L1406.05,388.431L1376.42,358.803ZM1340.95,347.774L1369.71,347.774L1369.71,673.25L1340.95,673.25L1340.95,347.774Z" style="fill:rgb(35,31,32);"/>
                    <path d="M1507.47,709.366L1477.85,679.954L1486.93,679.954L1516.56,709.366L1507.47,709.366ZM1498.61,709.366L1497.09,709.366L1467.68,679.954L1468.98,679.954L1498.61,709.366ZM1513.75,679.954L1522.83,679.954L1552.24,709.366L1543.37,709.366L1513.75,679.954ZM1504.88,679.954L1534.51,709.366L1525.21,709.366L1495.8,679.954L1504.88,679.954ZM1563.92,694.011L1534.29,664.599L1534.94,656.165L1564.35,685.577L1563.92,694.011ZM1563.27,702.445L1562.62,709.366L1561.11,709.366L1531.69,679.954L1533.21,679.954L1533.64,672.817L1563.27,702.445ZM1535.37,647.947L1536.02,639.297L1565.65,668.925L1565,677.359L1535.37,647.947ZM1537.32,622.644L1566.73,652.272L1566.3,660.707L1536.67,631.079L1537.32,622.644ZM1537.97,614.426L1538.4,605.992L1568.03,635.404L1567.38,643.838L1537.97,614.426ZM1539.05,597.558L1539.7,589.123L1569.11,618.752L1568.68,627.186L1539.05,597.558ZM1569.76,610.317L1540.35,580.905L1540.78,572.471L1570.41,601.883L1569.76,610.317ZM1541.43,564.253L1542.08,555.603L1571.49,585.231L1571.06,593.665L1541.43,564.253ZM1572.14,576.796L1542.51,547.385L1543.16,538.95L1572.79,568.362L1572.14,576.796ZM1543.81,530.516L1544.45,522.082L1573.87,551.71L1573.22,560.144L1543.81,530.516ZM1574.52,543.492L1544.89,513.864L1545.54,505.43L1575.16,534.841L1574.52,543.492ZM1546.18,496.995L1546.83,488.561L1576.25,518.189L1575.6,526.623L1546.18,496.995ZM1576.89,509.971L1547.27,480.343L1547.91,471.909L1577.54,501.321L1576.89,509.971ZM1548.56,463.474L1549.21,455.04L1578.62,484.668L1577.98,493.103L1548.56,463.474ZM1579.27,476.45L1549.64,446.822L1550.29,438.388L1579.92,467.8L1579.27,476.45ZM1550.94,430.17L1551.38,421.519L1581,451.147L1580.36,459.582L1550.94,430.17ZM1581.65,442.713L1552.02,413.301L1552.67,404.867L1582.09,434.279L1581.65,442.713ZM1553.32,396.649L1553.75,387.999L1583.38,417.627L1582.73,426.061L1553.32,396.649ZM1584.03,409.409L1554.4,379.781L1555.05,371.346L1584.46,400.758L1584.03,409.409ZM1555.7,362.912L1556.13,354.694L1585.76,384.106L1585.11,392.54L1555.7,362.912ZM1586.19,375.888L1556.78,346.26L1557.21,341.069L1586.63,370.698L1586.19,375.888ZM1499.9,540.464L1499.26,530.732L1501.42,533.111L1500.99,541.546L1499.9,540.464ZM1502.07,524.893L1498.39,521.217L1497.74,511.485L1502.72,516.243L1502.07,524.893ZM1497.09,501.969L1496.44,492.021L1503.8,499.59L1503.37,508.025L1497.09,501.969ZM1504.45,491.372L1495.8,482.506L1495.15,472.774L1505.1,482.722L1504.45,491.372ZM1494.5,463.258L1493.63,453.526L1506.18,466.07L1505.74,474.504L1494.5,463.258ZM1506.83,457.635L1492.98,444.011L1492.34,434.279L1507.47,449.417L1506.83,457.635ZM1491.69,424.763L1491.04,414.815L1508.56,432.549L1507.91,440.983L1491.69,424.763ZM1509.2,424.331L1490.39,405.516L1489.74,395.568L1509.85,415.68L1509.2,424.331ZM1488.88,386.052L1488.23,376.32L1510.93,399.028L1510.29,407.462L1488.88,386.052ZM1511.58,390.81L1487.58,366.805L1486.93,357.073L1512.23,382.159L1511.58,390.81ZM1486.28,347.557L1485.85,341.069L1513.1,368.319L1512.66,373.941L1486.28,347.557ZM1502.72,611.615L1521.32,347.774L1550.08,347.774L1526.94,673.25L1473.74,673.25L1450.81,347.774L1479.58,347.774L1498.17,611.615L1502.72,611.615Z" style="fill:rgb(35,31,32);"/>
                    <path d="M1667.08,624.158L1667.08,614.859L1692.16,639.945L1683.08,639.945L1667.08,624.158ZM1667.08,632.809L1674.21,639.945L1667.08,639.945L1667.08,632.809ZM1667.08,597.125L1696.7,626.537L1696.7,635.62L1667.08,605.992L1667.08,597.125ZM1667.08,588.258L1667.08,579.175L1696.7,608.587L1696.7,617.67L1667.08,588.258ZM1667.08,570.309L1667.08,561.226L1696.7,590.637L1696.7,599.72L1667.08,570.309ZM1696.7,581.771L1667.08,552.142L1667.08,543.276L1696.7,572.687L1696.7,581.771ZM1667.08,534.409L1667.08,529.219L1671.18,529.219L1700.6,558.847L1696.7,558.847L1696.7,563.821L1667.08,534.409ZM1709.46,558.847L1680.05,529.219L1689.13,529.219L1718.55,558.847L1709.46,558.847ZM1698,529.219L1705.14,529.219L1705.14,527.488L1734.77,556.9L1734.77,558.847L1727.41,558.847L1698,529.219ZM1734.77,548.25L1705.14,518.622L1705.14,509.539L1734.77,538.95L1734.77,548.25ZM1705.14,500.672L1705.14,491.589L1734.77,521.217L1734.77,530.084L1705.14,500.672ZM1630.53,679.954L1639.61,679.954L1669.24,709.366L1660.16,709.366L1630.53,679.954ZM1696.06,709.366L1666.43,679.954L1675.51,679.954L1704.92,709.366L1696.06,709.366ZM1687.19,709.366L1678.11,709.366L1648.48,679.954L1657.56,679.954L1687.19,709.366ZM1684.38,679.954L1693.46,679.954L1722.87,709.366L1713.79,709.366L1684.38,679.954ZM1731.74,709.366L1702.33,679.954L1705.14,679.954L1705.14,673.682L1734.77,703.31L1734.77,709.366L1731.74,709.366ZM1705.14,664.816L1705.14,655.733L1734.77,685.361L1734.77,694.444L1705.14,664.816ZM1734.77,676.494L1705.14,646.866L1705.14,639.945L1734.77,669.573L1734.77,676.494ZM1673.35,489.426L1667.08,483.371L1667.08,474.071L1682.43,489.426L1673.35,489.426ZM1667.08,465.205L1667.08,456.338L1696.7,485.75L1696.7,489.426L1691.3,489.426L1667.08,465.205ZM1696.7,476.883L1667.08,447.471L1667.08,438.388L1696.7,467.8L1696.7,476.883ZM1667.08,429.521L1667.08,420.438L1696.7,449.85L1696.7,458.933L1667.08,429.521ZM1696.7,440.983L1667.08,411.571L1667.08,402.488L1696.7,431.9L1696.7,440.983ZM1667.08,393.621L1667.08,384.538L1696.7,413.95L1696.7,423.033L1667.08,393.621ZM1701.89,410.49L1672.48,380.862L1681.57,380.862L1710.98,410.49L1701.89,410.49ZM1690.22,380.862L1699.3,380.862L1728.93,410.49L1719.84,410.49L1690.22,380.862ZM1734.77,407.462L1705.14,377.834L1705.14,368.751L1734.77,398.163L1734.77,407.462ZM1705.14,359.884L1705.14,350.801L1734.77,380.429L1734.77,389.512L1705.14,359.884ZM1734.77,371.563L1705.14,341.935L1705.14,341.069L1734.77,370.698L1734.77,371.563ZM1631.61,347.774L1698.43,347.774L1698.43,374.374L1660.37,374.374L1660.37,496.13L1698.43,496.13L1698.43,522.731L1660.37,522.731L1660.37,646.65L1698.43,646.65L1698.43,673.25L1631.61,673.25L1631.61,347.774Z" style="fill:rgb(35,31,32);"/>
                </g>
                <g transform="matrix(2.3392,0,0,2.3392,-84.0943,-1447.49)">
                    <path d="M395.384,908.417C395.384,908.417 395.48,908.185 395.671,907.721C395.863,907.257 396.126,906.651 396.459,905.904C396.792,905.157 397.17,904.304 397.594,903.345C398.018,902.386 398.452,901.402 398.896,900.393C399.926,898.051 401.107,895.376 402.439,892.368L404.407,892.368L395.384,912.596L390.115,901.271L384.664,912.596L375.58,892.368L377.548,892.368L384.664,908.448L389.206,899.182C389.004,898.697 388.782,898.172 388.54,897.607C388.298,897.042 388.046,896.467 387.783,895.881C387.521,895.296 387.268,894.72 387.026,894.155C386.784,893.59 386.562,893.065 386.36,892.58L388.298,892.58L390.145,896.941C390.387,896.376 390.624,895.836 390.857,895.321C391.089,894.806 391.286,894.347 391.447,893.943C391.649,893.479 391.841,893.045 392.022,892.641L393.96,892.641L391.114,899.182C391.114,899.182 391.225,899.404 391.447,899.848C391.669,900.292 391.937,900.857 392.25,901.544C392.562,902.23 392.906,902.977 393.279,903.784C393.653,904.592 393.996,905.339 394.309,906.025C394.622,906.712 394.879,907.282 395.081,907.736C395.283,908.19 395.384,908.417 395.384,908.417Z" style="fill:rgb(35,31,32);fill-rule:nonzero;"/>
                    <rect x="408.283" y="892.368" width="1.756" height="19.955" style="fill:rgb(35,31,32);fill-rule:nonzero;"/>
                    <path d="M430.54,892.368L430.54,894.125L423.454,894.125L423.454,912.324L421.698,912.324L421.698,894.125L414.552,894.125L414.552,892.368L430.54,892.368Z" style="fill:rgb(35,31,32);fill-rule:nonzero;"/>
                    <path d="M448.678,901.453L436.202,901.453L436.202,912.324L434.446,912.324L434.446,892.368L436.202,892.368L436.202,899.696L448.678,899.696L448.678,892.368L450.434,892.368L450.434,912.324L448.678,912.324L448.678,901.453Z" style="fill:rgb(35,31,32);fill-rule:nonzero;"/>
                    <path d="M476.294,892.368C477.667,892.368 478.959,892.631 480.17,893.156C481.382,893.681 482.441,894.397 483.35,895.306C484.258,896.214 484.975,897.274 485.5,898.485C486.025,899.696 486.287,900.988 486.287,902.361C486.287,903.734 486.025,905.026 485.5,906.237C484.975,907.448 484.258,908.503 483.35,909.402C482.441,910.3 481.382,911.011 480.17,911.536C478.959,912.061 477.667,912.324 476.294,912.324L469.875,912.324L469.875,892.368L476.294,892.368ZM484.531,902.361C484.531,901.231 484.314,900.166 483.88,899.167C483.446,898.167 482.855,897.294 482.108,896.547C481.361,895.8 480.488,895.21 479.489,894.776C478.49,894.342 477.425,894.125 476.294,894.125L471.631,894.125L471.631,910.567L476.294,910.567C477.425,910.567 478.49,910.355 479.489,909.931C480.488,909.508 481.361,908.922 482.108,908.175C482.855,907.428 483.446,906.56 483.88,905.571C484.314,904.582 484.531,903.512 484.531,902.361Z" style="fill:rgb(35,31,32);fill-rule:nonzero;"/>
                    <path d="M512.904,908.115L520.898,892.368L522.806,892.368L512.904,912.384L502.972,892.368L504.91,892.368L512.904,908.115Z" style="fill:rgb(35,31,32);fill-rule:nonzero;"/>
                    <path d="M534.01,892.187C535.403,892.187 536.715,892.454 537.947,892.989C539.178,893.524 540.253,894.251 541.171,895.169C542.09,896.088 542.812,897.168 543.337,898.41C543.861,899.651 544.124,900.968 544.124,902.361C544.124,903.754 543.861,905.071 543.337,906.313C542.812,907.554 542.09,908.634 541.171,909.553C540.253,910.471 539.178,911.198 537.947,911.733C536.715,912.268 535.403,912.536 534.01,912.536C532.597,912.536 531.27,912.268 530.028,911.733C528.787,911.198 527.707,910.471 526.788,909.553C525.869,908.634 525.143,907.554 524.608,906.313C524.073,905.071 523.805,903.754 523.805,902.361C523.805,900.968 524.073,899.651 524.608,898.41C525.143,897.168 525.869,896.088 526.788,895.169C527.707,894.251 528.787,893.524 530.028,892.989C531.27,892.454 532.597,892.187 534.01,892.187ZM542.368,902.361C542.368,901.19 542.151,900.095 541.717,899.076C541.283,898.056 540.687,897.168 539.93,896.411C539.173,895.654 538.285,895.053 537.265,894.609C536.246,894.165 535.161,893.943 534.01,893.943C532.839,893.943 531.739,894.165 530.709,894.609C529.68,895.053 528.787,895.654 528.03,896.411C527.273,897.168 526.672,898.056 526.228,899.076C525.784,900.095 525.562,901.19 525.562,902.361C525.562,903.532 525.784,904.627 526.228,905.647C526.672,906.666 527.273,907.554 528.03,908.311C528.787,909.068 529.68,909.669 530.709,910.113C531.739,910.557 532.839,910.779 534.01,910.779C535.161,910.779 536.246,910.557 537.265,910.113C538.285,909.669 539.173,909.068 539.93,908.311C540.687,907.554 541.283,906.666 541.717,905.647C542.151,904.627 542.368,903.532 542.368,902.361Z" style="fill:rgb(35,31,32);fill-rule:nonzero;"/>
                    <path d="M556.902,892.187C558.295,892.187 559.608,892.454 560.839,892.989C562.07,893.524 563.145,894.251 564.064,895.169C564.982,896.088 565.704,897.168 566.229,898.41C566.754,899.651 567.016,900.968 567.016,902.361C567.016,903.754 566.754,905.071 566.229,906.313C565.704,907.554 564.982,908.634 564.064,909.553C563.145,910.471 562.07,911.198 560.839,911.733C559.608,912.268 558.295,912.536 556.902,912.536C555.489,912.536 554.162,912.268 552.921,911.733C551.679,911.198 550.599,910.471 549.68,909.553C548.762,908.634 548.035,907.554 547.5,906.313C546.965,905.071 546.698,903.754 546.698,902.361C546.698,900.968 546.965,899.651 547.5,898.41C548.035,897.168 548.762,896.088 549.68,895.169C550.599,894.251 551.679,893.524 552.921,892.989C554.162,892.454 555.489,892.187 556.902,892.187ZM565.26,902.361C565.26,901.19 565.043,900.095 564.609,899.076C564.175,898.056 563.579,897.168 562.822,896.411C562.065,895.654 561.177,895.053 560.158,894.609C559.138,894.165 558.053,893.943 556.902,893.943C555.732,893.943 554.631,894.165 553.602,894.609C552.572,895.053 551.679,895.654 550.922,896.411C550.165,897.168 549.564,898.056 549.12,899.076C548.676,900.095 548.454,901.19 548.454,902.361C548.454,903.532 548.676,904.627 549.12,905.647C549.564,906.666 550.165,907.554 550.922,908.311C551.679,909.068 552.572,909.669 553.602,910.113C554.631,910.557 555.732,910.779 556.902,910.779C558.053,910.779 559.138,910.557 560.158,910.113C561.177,909.669 562.065,909.068 562.822,908.311C563.579,907.554 564.175,906.666 564.609,905.647C565.043,904.627 565.26,903.532 565.26,902.361Z" style="fill:rgb(35,31,32);fill-rule:nonzero;"/>
                    <path d="M573.073,901.332L573.073,912.324L571.316,912.324L571.316,892.368L580.067,892.368C580.956,892.368 581.763,892.444 582.49,892.596C583.217,892.747 583.837,892.994 584.352,893.337C584.867,893.681 585.266,894.14 585.548,894.715C585.831,895.291 585.972,896.012 585.972,896.88C585.972,897.405 585.907,897.925 585.775,898.44C585.644,898.955 585.427,899.424 585.124,899.848C584.822,900.272 584.418,900.62 583.913,900.893C583.408,901.165 582.783,901.311 582.036,901.332L587.789,912.324L585.76,912.324L580.189,901.332L573.073,901.332ZM573.073,894.125L573.073,899.636L580.158,899.636C580.804,899.636 581.38,899.601 581.884,899.53C582.389,899.459 582.813,899.328 583.156,899.136C583.499,898.945 583.762,898.667 583.943,898.304C584.125,897.94 584.216,897.466 584.216,896.88C584.216,895.831 583.888,895.109 583.232,894.715C582.576,894.322 581.521,894.125 580.067,894.125L573.073,894.125Z" style="fill:rgb(35,31,32);fill-rule:nonzero;"/>
                    <path d="M606.23,901.453L593.754,901.453L593.754,912.324L591.998,912.324L591.998,892.368L593.754,892.368L593.754,899.696L606.23,899.696L606.23,892.368L607.986,892.368L607.986,912.324L606.23,912.324L606.23,901.453Z" style="fill:rgb(35,31,32);fill-rule:nonzero;"/>
                    <path d="M613.104,912.324L613.104,892.368L627.215,892.368L627.215,894.125L614.86,894.125L614.86,899.636L625.519,899.636L625.519,901.392L614.86,901.392L614.86,910.567L627.457,910.567L627.457,912.324L613.104,912.324Z" style="fill:rgb(35,31,32);fill-rule:nonzero;"/>
                    <path d="M630.516,912.324L630.516,892.368L644.626,892.368L644.626,894.125L632.272,894.125L632.272,899.636L642.931,899.636L642.931,901.392L632.272,901.392L632.272,910.567L644.869,910.567L644.869,912.324L630.516,912.324Z" style="fill:rgb(35,31,32);fill-rule:nonzero;"/>
                    <path d="M663.552,906.025C663.532,907.055 663.31,907.978 662.886,908.796C662.462,909.614 661.877,910.31 661.13,910.885C660.383,911.461 659.505,911.9 658.495,912.203C657.486,912.505 656.386,912.657 655.195,912.657C654.73,912.657 654.195,912.632 653.59,912.581C652.984,912.531 652.363,912.455 651.727,912.354C651.091,912.253 650.471,912.117 649.865,911.945C649.259,911.774 648.725,911.577 648.26,911.355C648.361,911.133 648.472,910.855 648.593,910.522C648.714,910.189 648.836,909.921 648.957,909.72L649.138,909.78C650.168,910.103 651.187,910.376 652.197,910.598C653.206,910.82 654.266,910.931 655.376,910.931C656.063,910.931 656.789,910.835 657.556,910.643C658.324,910.451 659.03,910.154 659.676,909.75C660.322,909.346 660.857,908.831 661.281,908.205C661.705,907.58 661.917,906.823 661.917,905.934C661.917,905.692 661.836,905.324 661.675,904.829C661.513,904.335 661.19,903.84 660.706,903.345C660.221,902.851 659.525,902.412 658.616,902.028C657.708,901.645 656.507,901.453 655.013,901.453C654.407,901.453 653.736,901.372 652.999,901.211C652.262,901.049 651.571,900.787 650.925,900.423C650.279,900.06 649.739,899.585 649.305,899C648.871,898.415 648.654,897.698 648.654,896.85L648.654,896.729C648.694,895.336 649.35,894.246 650.622,893.459C651.894,892.671 653.63,892.257 655.83,892.217C656.335,892.217 656.804,892.227 657.239,892.247C657.673,892.268 658.102,892.318 658.525,892.399C658.949,892.48 659.378,892.586 659.812,892.717C660.246,892.848 660.706,893.025 661.19,893.247L660.675,894.882C660.009,894.539 659.313,894.266 658.586,894.064C657.859,893.862 656.941,893.761 655.83,893.761C655.063,893.761 654.357,893.822 653.711,893.943C653.065,894.064 652.505,894.251 652.03,894.503C651.556,894.756 651.182,895.074 650.91,895.457C650.637,895.841 650.501,896.285 650.501,896.79C650.501,897.274 650.647,897.703 650.94,898.076C651.233,898.45 651.601,898.768 652.045,899.03C652.489,899.293 652.984,899.49 653.529,899.621C654.074,899.752 654.599,899.818 655.104,899.818L655.376,899.818C656.285,899.818 657.223,899.939 658.192,900.181C659.161,900.423 660.045,900.797 660.842,901.301C661.639,901.806 662.29,902.442 662.795,903.209C663.3,903.976 663.552,904.875 663.552,905.904L663.552,906.025Z" style="fill:rgb(35,31,32);fill-rule:nonzero;"/>
                </g>
            </g>
        </g>
    </g>
</svg>
